# xmcd
#
# Track frame offsets:
#	150
#	13549
#	27175
#	46704
#	60040
#	77654
#	94673
#	109000
#	122153
#	138705
#	156246
#	170655
#	184310
#	197589
#	211509
#
# Disc length: 3016 seconds
# Revision: 0
# Processed by: cddbd v1.5.2PL0 Copyright (c) Steve Scherf et al.
# Submitted via: dBpowerAMP V12.0
#
DISCID=ba0bc60f
DTITLE=Truck Stop - Die Lady und der Tramp
DYEAR=2015
DGENRE=Country
TTITLE0=Der wilde wilde Westen (Neuaufnahme)
TTITLE1=Männer mit Hut
TTITLE2=Wohin der Wind Dich treibt
TTITLE3=Alte Adler sehen mehr
TTITLE4=Wenn es Nacht wird in Old Tucson
TTITLE5=Eine Gitarre und eine Ukulele
TTITLE6=Country Boy
TTITLE7=Unsre Herzen (schlagen für den Wilden Westen)
TTITLE8=Jenny
TTITLE9=Träume von den Cowboys
TTITLE10=Zwölf Rosen
TTITLE11=Alter Freund
TTITLE12=Arizona-Arizona
TTITLE13=Wilde Pferde, wilde Wölfe, wildes Land
TTITLE14=On The Road
EXTD=
EXTT0=
EXTT1=
EXTT2=
EXTT3=
EXTT4=
EXTT5=
EXTT6=
EXTT7=
EXTT8=
EXTT9=
EXTT10=
EXTT11=
EXTT12=
EXTT13=
EXTT14=
PLAYORDER=
